<?xml version="1.0" encoding="iso-8859-1"?>
<!-- Generator: Adobe Illustrator 19.0.0, SVG Export Plug-In . SVG Version: 6.00 Build 0)  -->
<svg version="1.1" id="Layer_1" xmlns="http://www.w3.org/2000/svg" xmlns:xlink="http://www.w3.org/1999/xlink" x="0px" y="0px"
	 viewBox="0 0 512 512" style="enable-background:new 0 0 512 512;" xml:space="preserve">
<path style="fill:#F2B851;" d="M256,130.68c-79.632,0-144.192,64.208-144.192,143.408S176.368,417.496,256,417.496
	s144.192-64.208,144.192-143.408S335.632,130.68,256,130.68z M256,401.48c-70.688,0-128.192-57.152-128.192-127.408
	S185.312,146.68,256,146.68s128.192,57.152,128.192,127.408S326.688,401.48,256,401.48z"/>
<path style="fill:#25B6D2;" d="M256,211.672c-10.816,0-20.848,2.976-29.728,7.76c2.56-1.024,5.344-1.616,8.288-1.616
	c12.352,0,22.368,9.968,22.368,22.256s-10.016,22.256-22.368,22.256c-12.352,0-22.368-9.968-22.368-22.256
	c0-7.52,3.776-14.128,9.504-18.16c-17.104,11.152-28.448,30.32-28.448,52.176c0,34.464,28.096,62.416,62.752,62.416
	s62.752-27.936,62.752-62.416S290.656,211.672,256,211.672z"/>
<path style="fill:#FFFFFF;" d="M234.56,217.816c-2.928,0-5.712,0.592-8.288,1.616c-1.632,0.656-3.168,1.472-4.576,2.48
	c-5.744,4.032-9.504,10.64-9.504,18.16c0,12.288,10.016,22.256,22.368,22.256c12.352,0,22.368-9.968,22.368-22.256
	C256.928,227.784,246.912,217.816,234.56,217.816z"/>
<path d="M480.064,106.744H435.2V70.6H322.08v36.144H31.936C14.368,106.744,0,121.128,0,138.68v270.784
	C0,427.032,14.368,441.4,31.936,441.4h448.128c17.568,0,31.936-14.368,31.936-31.936V138.68
	C512,121.128,497.632,106.744,480.064,106.744z M256,417.48c-79.632,0-144.192-64.208-144.192-143.408S176.368,130.68,256,130.68
	s144.192,64.208,144.192,143.408S335.632,417.48,256,417.48z"/>
<path d="M256,146.68c-70.688,0-128.192,57.152-128.192,127.408S185.312,401.496,256,401.496s128.192-57.152,128.192-127.408
	S326.688,146.68,256,146.68z M256,336.488c-34.656,0-62.752-27.936-62.752-62.416c0-21.856,11.344-41.024,28.448-52.176
	c1.424-0.992,2.944-1.824,4.576-2.48c8.88-4.8,18.912-7.76,29.728-7.76c34.656,0,62.752,27.936,62.752,62.416
	S290.656,336.488,256,336.488z"/>
<g>
</g>
<g>
</g>
<g>
</g>
<g>
</g>
<g>
</g>
<g>
</g>
<g>
</g>
<g>
</g>
<g>
</g>
<g>
</g>
<g>
</g>
<g>
</g>
<g>
</g>
<g>
</g>
<g>
</g>
</svg>
